<svg width="1148" height="612" viewBox="0 0 1148 612" fill="none" xmlns="http://www.w3.org/2000/svg">
<path d="M110 480.957V250C110 183.726 163.726 130 230 130H252C318.274 130 372 183.726 372 250V480.957" stroke="#15B5BE" stroke-width="8"/>
<path d="M110 481.5L156.5 424.999L208 481.5L247.5 424.999L289 481.5L327.5 424.999L372 481.5" stroke="#15B5BE" stroke-width="4" stroke-dasharray="6 6"/>
<circle cx="194.5" cy="246.583" r="45" stroke="#15B5BE" stroke-width="3"/>
<circle cx="300.5" cy="246.583" r="45" stroke="#15B5BE" stroke-width="3"/>
<circle cx="195" cy="242.059" r="7" fill="#15B5BE" fill-opacity="0.913725"/>
<circle cx="298" cy="242.059" r="7" fill="#15B5BE" fill-opacity="0.913725"/>
<path d="M557.476 324.649H516.307L509.093 341.43C507.316 345.56 506.427 348.644 506.427 350.683C506.427 352.304 507.185 353.741 508.701 354.996C510.269 356.199 513.615 356.983 518.738 357.349V360.25H485.255V357.349C489.698 356.564 492.573 355.545 493.88 354.29C496.547 351.781 499.5 346.684 502.741 338.999L540.146 251.487H542.89L579.903 339.94C582.882 347.05 585.575 351.677 587.979 353.82C590.437 355.911 593.835 357.087 598.174 357.349V360.25H556.221V357.349C560.455 357.14 563.305 356.434 564.768 355.231C566.284 354.029 567.042 352.565 567.042 350.84C567.042 348.54 565.997 344.907 563.906 339.94L557.476 324.649ZM555.28 318.846L537.244 275.874L518.738 318.846H555.28ZM626.325 248.743V320.258L644.596 303.555C648.464 300 650.712 297.753 651.34 296.812C651.758 296.184 651.967 295.557 651.967 294.93C651.967 293.884 651.522 292.995 650.634 292.263C649.797 291.479 648.386 291.035 646.399 290.93V288.421H677.609V290.93C673.322 291.035 669.741 291.688 666.866 292.891C664.043 294.093 660.932 296.236 657.534 299.321L639.107 316.337L657.534 339.627C662.658 346.057 666.108 350.134 667.885 351.859C670.395 354.317 672.59 355.911 674.472 356.643C675.779 357.166 678.053 357.427 681.294 357.427V360.25H646.399V357.427C648.386 357.375 649.719 357.087 650.399 356.564C651.13 355.989 651.496 355.205 651.496 354.212C651.496 353.01 650.451 351.075 648.36 348.409L626.325 320.258V344.096C626.325 348.749 626.639 351.807 627.266 353.271C627.945 354.735 628.886 355.78 630.089 356.408C631.291 357.035 633.905 357.375 637.93 357.427V360.25H601.389V357.427C605.048 357.427 607.793 356.983 609.622 356.094C610.72 355.519 611.557 354.63 612.132 353.428C612.916 351.703 613.308 348.723 613.308 344.488V279.09C613.308 270.777 613.125 265.707 612.759 263.877C612.393 261.995 611.792 260.714 610.955 260.034C610.119 259.303 609.021 258.937 607.662 258.937C606.564 258.937 604.917 259.381 602.722 260.27L601.389 257.525L622.718 248.743H626.325ZM748.34 288.421V331.942C748.34 340.254 748.523 345.351 748.889 347.233C749.307 349.063 749.934 350.343 750.771 351.075C751.66 351.807 752.679 352.173 753.829 352.173C755.45 352.173 757.279 351.729 759.318 350.84L760.416 353.585L738.93 362.446H735.401V347.233C729.233 353.924 724.528 358.133 721.286 359.858C718.045 361.583 714.621 362.446 711.014 362.446C706.989 362.446 703.486 361.296 700.506 358.995C697.579 356.643 695.54 353.637 694.39 349.978C693.24 346.318 692.665 341.143 692.665 334.451V302.379C692.665 298.981 692.299 296.629 691.567 295.322C690.835 294.015 689.737 293.021 688.273 292.342C686.862 291.61 684.274 291.27 680.51 291.322V288.421H705.682V336.49C705.682 343.181 706.832 347.573 709.132 349.664C711.485 351.755 714.307 352.8 717.601 352.8C719.849 352.8 722.384 352.095 725.207 350.683C728.083 349.272 731.481 346.579 735.401 342.606V301.909C735.401 297.831 734.643 295.086 733.127 293.675C731.664 292.211 728.579 291.427 723.874 291.322V288.421H748.34ZM786.999 301.595C792.227 296.367 795.311 293.361 796.252 292.577C798.605 290.591 801.14 289.048 803.858 287.951C806.577 286.853 809.269 286.304 811.935 286.304C816.431 286.304 820.3 287.611 823.541 290.225C826.782 292.838 828.952 296.629 830.049 301.595C835.434 295.322 839.982 291.218 843.694 289.284C847.405 287.297 851.222 286.304 855.142 286.304C858.959 286.304 862.331 287.297 865.258 289.284C868.238 291.218 870.59 294.407 872.316 298.85C873.466 301.882 874.041 306.64 874.041 313.122V344.018C874.041 348.514 874.38 351.598 875.06 353.271C875.583 354.421 876.55 355.414 877.961 356.251C879.373 357.035 881.673 357.427 884.862 357.427V360.25H849.418V357.427H850.908C853.992 357.427 856.397 356.826 858.122 355.623C859.325 354.787 860.187 353.454 860.71 351.624C860.919 350.736 861.024 348.2 861.024 344.018V313.122C861.024 307.267 860.318 303.137 858.906 300.732C856.868 297.387 853.6 295.714 849.104 295.714C846.334 295.714 843.537 296.419 840.714 297.831C837.943 299.19 834.571 301.752 830.598 305.516L830.441 306.378L830.598 309.75V344.018C830.598 348.932 830.86 351.99 831.382 353.193C831.957 354.395 833.003 355.414 834.519 356.251C836.035 357.035 838.623 357.427 842.282 357.427V360.25H805.976V357.427C809.949 357.427 812.667 356.957 814.131 356.016C815.647 355.075 816.693 353.663 817.268 351.781C817.529 350.892 817.66 348.305 817.66 344.018V313.122C817.66 307.267 816.797 303.059 815.072 300.497C812.772 297.151 809.557 295.478 805.427 295.478C802.604 295.478 799.807 296.236 797.036 297.753C792.697 300.053 789.351 302.64 786.999 305.516V344.018C786.999 348.723 787.313 351.781 787.94 353.193C788.62 354.604 789.587 355.676 790.841 356.408C792.148 357.087 794.762 357.427 798.683 357.427V360.25H763.161V357.427C766.454 357.427 768.754 357.087 770.061 356.408C771.368 355.676 772.361 354.552 773.041 353.036C773.721 351.467 774.06 348.461 774.06 344.018V316.572C774.06 308.678 773.825 303.581 773.355 301.281C772.989 299.556 772.414 298.38 771.63 297.753C770.845 297.073 769.774 296.733 768.414 296.733C766.951 296.733 765.199 297.125 763.161 297.909L761.984 295.086L783.627 286.304H786.999V301.595ZM902.741 315.475C902.689 326.139 905.276 334.503 910.504 340.568C915.732 346.632 921.874 349.664 928.932 349.664C933.637 349.664 937.714 348.383 941.165 345.821C944.667 343.208 947.595 338.764 949.947 332.491L952.378 334.059C951.28 341.221 948.091 347.756 942.811 353.663C937.531 359.518 930.918 362.446 922.972 362.446C914.346 362.446 906.949 359.1 900.78 352.408C894.664 345.665 891.606 336.621 891.606 325.277C891.606 312.991 894.742 303.425 901.016 296.576C907.341 289.676 915.261 286.225 924.776 286.225C932.826 286.225 939.44 288.892 944.615 294.224C949.79 299.504 952.378 306.587 952.378 315.475H902.741ZM902.741 310.926H935.989C935.728 306.326 935.179 303.085 934.342 301.203C933.036 298.275 931.075 295.975 928.461 294.302C925.9 292.629 923.207 291.793 920.384 291.793C916.045 291.793 912.151 293.492 908.7 296.89C905.302 300.236 903.316 304.915 902.741 310.926ZM982.96 301.516C991.377 291.375 999.402 286.304 1007.03 286.304C1010.95 286.304 1014.33 287.297 1017.15 289.284C1019.97 291.218 1022.22 294.433 1023.89 298.929C1025.04 302.065 1025.62 306.875 1025.62 313.357V344.018C1025.62 348.566 1025.98 351.65 1026.72 353.271C1027.29 354.578 1028.21 355.597 1029.46 356.329C1030.77 357.061 1033.15 357.427 1036.6 357.427V360.25H1001.07V357.427H1002.56C1005.91 357.427 1008.24 356.93 1009.54 355.937C1010.9 354.892 1011.84 353.376 1012.37 351.389C1012.58 350.605 1012.68 348.148 1012.68 344.018V314.612C1012.68 308.077 1011.82 303.346 1010.09 300.419C1008.42 297.439 1005.57 295.949 1001.54 295.949C995.324 295.949 989.129 299.347 982.96 306.143V344.018C982.96 348.88 983.248 351.886 983.823 353.036C984.555 354.552 985.548 355.676 986.803 356.408C988.11 357.087 990.724 357.427 994.644 357.427V360.25H959.122V357.427H960.69C964.35 357.427 966.807 356.512 968.061 354.682C969.368 352.8 970.022 349.246 970.022 344.018V317.357C970.022 308.731 969.813 303.477 969.394 301.595C969.028 299.713 968.427 298.432 967.591 297.753C966.807 297.073 965.735 296.733 964.376 296.733C962.912 296.733 961.161 297.125 959.122 297.909L957.946 295.086L979.588 286.304H982.96V301.516Z" fill="#15B5BE"/>
<path d="M493.12 384.89H487.008V388.298H491.776V389.498H487.008V394.25H485.728V383.69H493.12V384.89ZM514.774 383.69V390.314C514.774 391.669 514.416 392.693 513.702 393.386C512.987 394.069 511.963 394.41 510.63 394.41C509.307 394.41 508.283 394.069 507.558 393.386C506.843 392.693 506.486 391.669 506.486 390.314V383.69H507.766V389.994C507.766 391.093 507.995 391.903 508.454 392.426C508.923 392.949 509.648 393.21 510.63 393.21C511.611 393.21 512.331 392.949 512.79 392.426C513.259 391.903 513.494 391.093 513.494 389.994V383.69H514.774ZM536.646 383.69V384.89H532.966V394.25H531.686V384.89H528.006V383.69H536.646ZM558.158 383.69V390.314C558.158 391.669 557.801 392.693 557.086 393.386C556.371 394.069 555.347 394.41 554.014 394.41C552.691 394.41 551.667 394.069 550.942 393.386C550.227 392.693 549.87 391.669 549.87 390.314V383.69H551.15V389.994C551.15 391.093 551.379 391.903 551.838 392.426C552.307 392.949 553.033 393.21 554.014 393.21C554.995 393.21 555.715 392.949 556.174 392.426C556.643 391.903 556.878 391.093 556.878 389.994V383.69H558.158ZM576.606 383.69C577.683 383.69 578.547 383.967 579.198 384.522C579.849 385.077 580.174 385.829 580.174 386.778C580.174 387.727 579.843 388.469 579.182 389.002C578.531 389.525 577.667 389.786 576.59 389.786L576.478 389.866H573.886V394.25H572.606V383.69H576.606ZM576.59 388.666C577.347 388.666 577.907 388.511 578.27 388.202C578.643 387.882 578.83 387.407 578.83 386.778C578.83 386.149 578.643 385.679 578.27 385.37C577.907 385.05 577.347 384.89 576.59 384.89H573.886V388.666H576.59ZM577.326 388.922L580.814 394.25H579.294L576.254 389.626L577.326 388.922ZM594.447 394.25V383.69H601.855V384.89H595.727V388.298H600.495V389.498H595.727V393.05H602.095V394.25H594.447ZM636.759 383.53C637.762 383.53 638.626 383.754 639.351 384.202C640.087 384.639 640.652 385.263 641.047 386.074C641.452 386.885 641.655 387.85 641.655 388.97C641.655 390.09 641.452 391.055 641.047 391.866C640.652 392.677 640.087 393.306 639.351 393.754C638.626 394.191 637.762 394.41 636.759 394.41C635.756 394.41 634.887 394.191 634.151 393.754C633.426 393.306 632.86 392.677 632.455 391.866C632.06 391.055 631.863 390.09 631.863 388.97C631.863 387.85 632.06 386.885 632.455 386.074C632.86 385.263 633.426 384.639 634.151 384.202C634.887 383.754 635.756 383.53 636.759 383.53ZM636.759 384.73C636.034 384.73 635.404 384.901 634.871 385.242C634.338 385.573 633.927 386.058 633.639 386.698C633.351 387.327 633.207 388.085 633.207 388.97C633.207 389.855 633.351 390.618 633.639 391.258C633.927 391.887 634.338 392.373 634.871 392.714C635.404 393.045 636.034 393.21 636.759 393.21C637.495 393.21 638.124 393.045 638.647 392.714C639.18 392.373 639.591 391.887 639.879 391.258C640.167 390.618 640.311 389.855 640.311 388.97C640.311 388.085 640.167 387.327 639.879 386.698C639.591 386.058 639.18 385.573 638.647 385.242C638.124 384.901 637.495 384.73 636.759 384.73ZM663.064 384.89H656.952V388.298H661.72V389.498H656.952V394.25H655.672V383.69H663.064V384.89ZM692.916 394.25V383.69H696.676C697.924 383.69 698.836 383.951 699.411 384.474C699.988 384.997 700.276 385.706 700.276 386.602C700.276 387.135 700.121 387.621 699.812 388.058C699.502 388.485 699.065 388.757 698.5 388.874V388.89C699.129 389.007 699.625 389.295 699.988 389.754C700.361 390.202 700.548 390.714 700.548 391.29C700.548 392.186 700.212 392.906 699.54 393.45C698.868 393.983 697.908 394.25 696.66 394.25H692.916ZM694.196 393.05H696.964C697.721 393.05 698.281 392.895 698.644 392.586C699.017 392.277 699.204 391.845 699.204 391.29C699.204 390.725 699.017 390.293 698.644 389.994C698.281 389.685 697.721 389.53 696.964 389.53H694.196V393.05ZM694.196 388.33H696.692C698.185 388.33 698.932 387.754 698.932 386.602C698.932 385.461 698.185 384.89 696.692 384.89H694.196V388.33ZM718.825 383.53C719.827 383.53 720.691 383.754 721.417 384.202C722.153 384.639 722.718 385.263 723.113 386.074C723.518 386.885 723.721 387.85 723.721 388.97C723.721 390.09 723.518 391.055 723.113 391.866C722.718 392.677 722.153 393.306 721.417 393.754C720.691 394.191 719.827 394.41 718.825 394.41C717.822 394.41 716.953 394.191 716.217 393.754C715.491 393.306 714.926 392.677 714.521 391.866C714.126 391.055 713.929 390.09 713.929 388.97C713.929 387.85 714.126 386.885 714.521 386.074C714.926 385.263 715.491 384.639 716.217 384.202C716.953 383.754 717.822 383.53 718.825 383.53ZM718.825 384.73C718.099 384.73 717.47 384.901 716.937 385.242C716.403 385.573 715.993 386.058 715.705 386.698C715.417 387.327 715.273 388.085 715.273 388.97C715.273 389.855 715.417 390.618 715.705 391.258C715.993 391.887 716.403 392.373 716.937 392.714C717.47 393.045 718.099 393.21 718.825 393.21C719.561 393.21 720.19 393.045 720.713 392.714C721.246 392.373 721.657 391.887 721.945 391.258C722.233 390.618 722.377 389.855 722.377 388.97C722.377 388.085 722.233 387.327 721.945 386.698C721.657 386.058 721.246 385.573 720.713 385.242C720.19 384.901 719.561 384.73 718.825 384.73ZM745.794 394.25H744.434L743.314 391.322H738.53L737.41 394.25H736.066L740.178 383.69H741.698L745.794 394.25ZM738.994 390.122H742.85L740.914 384.922L738.994 390.122ZM763.141 383.69C764.218 383.69 765.082 383.967 765.733 384.522C766.383 385.077 766.709 385.829 766.709 386.778C766.709 387.727 766.378 388.469 765.717 389.002C765.066 389.525 764.202 389.786 763.125 389.786L763.013 389.866H760.421V394.25H759.141V383.69H763.141ZM763.125 388.666C763.882 388.666 764.442 388.511 764.805 388.202C765.178 387.882 765.365 387.407 765.365 386.778C765.365 386.149 765.178 385.679 764.805 385.37C764.442 385.05 763.882 384.89 763.125 384.89H760.421V388.666H763.125ZM763.861 388.922L767.349 394.25H765.829L762.789 389.626L763.861 388.922ZM784.389 383.69C786.042 383.69 787.338 384.149 788.277 385.066C789.226 385.973 789.701 387.274 789.701 388.97C789.701 390.666 789.226 391.973 788.277 392.89C787.338 393.797 786.042 394.25 784.389 394.25H780.981V383.69H784.389ZM784.517 393.05C785.722 393.05 786.661 392.693 787.333 391.978C788.016 391.253 788.357 390.25 788.357 388.97C788.357 387.69 788.016 386.693 787.333 385.978C786.661 385.253 785.722 384.89 784.517 384.89H782.261V393.05H784.517ZM824.622 394.41C823.619 394.41 822.75 394.191 822.014 393.754C821.288 393.306 820.723 392.677 820.318 391.866C819.923 391.055 819.726 390.09 819.726 388.97C819.726 387.85 819.934 386.885 820.35 386.074C820.776 385.263 821.368 384.639 822.126 384.202C822.883 383.754 823.752 383.53 824.734 383.53C825.779 383.53 826.627 383.727 827.278 384.122C827.939 384.517 828.472 385.125 828.878 385.946L827.71 386.586C827.475 385.978 827.102 385.519 826.59 385.21C826.088 384.89 825.47 384.73 824.734 384.73C824.019 384.73 823.384 384.901 822.83 385.242C822.286 385.573 821.854 386.058 821.534 386.698C821.224 387.327 821.07 388.085 821.07 388.97C821.07 389.855 821.203 390.618 821.47 391.258C821.747 391.887 822.152 392.373 822.686 392.714C823.23 393.045 823.891 393.21 824.67 393.21C825.107 393.21 825.512 393.157 825.886 393.05C826.27 392.933 826.6 392.762 826.878 392.538C827.166 392.314 827.39 392.031 827.55 391.69C827.71 391.349 827.79 390.949 827.79 390.49V390.122H824.43V388.922H828.958V394.25H827.95L827.886 392.282L828.158 392.33C827.88 392.991 827.443 393.503 826.846 393.866C826.248 394.229 825.507 394.41 824.622 394.41ZM851.56 394.25H850.2L849.08 391.322H844.296L843.176 394.25H841.832L845.944 383.69H847.464L851.56 394.25ZM844.76 390.122H848.616L846.68 384.922L844.76 390.122ZM875.114 383.69V394.25H873.898V387.61L874.042 384.826H874.026L870.554 394.25H869.466L865.994 384.826H865.978L866.122 387.61V394.25H864.906V383.69H866.874L869.194 390.106L869.994 392.746H870.026L870.842 390.122L873.146 383.69H875.114ZM891.042 383.69V394.25H889.762V383.69H891.042ZM913.985 383.69V394.25H912.401L907.985 387.178L906.865 385.194H906.849L906.913 386.794V394.25H905.697V383.69H907.281L911.681 390.73L912.817 392.762H912.833L912.769 391.146V383.69H913.985ZM932.903 394.41C931.9 394.41 931.031 394.191 930.295 393.754C929.569 393.306 929.004 392.677 928.599 391.866C928.204 391.055 928.007 390.09 928.007 388.97C928.007 387.85 928.215 386.885 928.631 386.074C929.057 385.263 929.649 384.639 930.407 384.202C931.164 383.754 932.033 383.53 933.015 383.53C934.06 383.53 934.908 383.727 935.559 384.122C936.22 384.517 936.753 385.125 937.159 385.946L935.991 386.586C935.756 385.978 935.383 385.519 934.871 385.21C934.369 384.89 933.751 384.73 933.015 384.73C932.3 384.73 931.665 384.901 931.111 385.242C930.567 385.573 930.135 386.058 929.815 386.698C929.505 387.327 929.351 388.085 929.351 388.97C929.351 389.855 929.484 390.618 929.751 391.258C930.028 391.887 930.433 392.373 930.967 392.714C931.511 393.045 932.172 393.21 932.951 393.21C933.388 393.21 933.793 393.157 934.167 393.05C934.551 392.933 934.881 392.762 935.159 392.538C935.447 392.314 935.671 392.031 935.831 391.69C935.991 391.349 936.071 390.949 936.071 390.49V390.122H932.711V388.922H937.239V394.25H936.231L936.167 392.282L936.439 392.33C936.161 392.991 935.724 393.503 935.127 393.866C934.529 394.229 933.788 394.41 932.903 394.41Z" fill="#15B5BE"/>
</svg>
